<svg width="46" height="50" viewBox="0 0 46 50" fill="none" xmlns="http://www.w3.org/2000/svg">
<path d="M15.0684 4.94021C18.6747 8.54656 17.7732 12.0303 15.0684 14.735C12.3636 17.4398 8.87994 18.3414 5.27359 14.735C1.66724 11.1287 2.00865 1.67528 2.00865 1.67528C2.00865 1.67528 11.462 1.33387 15.0684 4.94021Z" fill="white"/>
<path d="M40.5527 7.50877C37.8794 5.89794 34.9615 5.94916 34.0354 7.62319C33.6628 8.29686 33.6695 9.13069 33.9848 9.99164C34.3494 10.9873 34.445 12.1407 33.8378 12.9977L25.3333 25H35.7373L39.3555 16.3225C39.763 15.3451 40.7679 14.8548 41.7764 14.6866C42.6485 14.5411 43.3437 14.1302 43.7164 13.4565C44.6424 11.7825 43.226 9.1196 40.5527 7.50877Z" fill="#E3FFFE"/>
<path d="M6.57931 25H39.4207C41.7002 25 42.84 25 43.5443 25.8757C44.2486 26.7514 44.0316 27.7107 43.5976 29.6294C42.335 35.2114 38.8378 39.9521 34.0897 42.8731C33.1765 43.4348 32.7869 44.5943 33.2797 45.543C33.9409 46.816 33.012 48.3333 31.5716 48.3333H14.4284C12.988 48.3333 12.0591 46.816 12.7203 45.543C13.2131 44.5943 12.8235 43.4348 11.9104 42.8731C7.1622 39.9521 3.66497 35.2114 2.40237 29.6294C1.96838 27.7107 1.75139 26.7514 2.4557 25.8757C3.16002 25 4.29978 25 6.57931 25Z" fill="white"/>
<path d="M6.57931 25H39.4207C41.7002 25 42.84 25 43.5443 25.8757C44.2486 26.7514 44.0316 27.7107 43.5976 29.6294C42.335 35.2114 38.8378 39.9521 34.0897 42.8731C33.1765 43.4348 32.7869 44.5943 33.2797 45.543C33.9409 46.816 33.012 48.3333 31.5716 48.3333H14.4284C12.988 48.3333 12.0591 46.816 12.7203 45.543C13.2131 44.5943 12.8235 43.4348 11.9104 42.8731C7.1622 39.9521 3.66497 35.2114 2.40237 29.6294C1.96838 27.7107 1.75139 26.7514 2.4557 25.8757C3.16002 25 4.29978 25 6.57931 25Z" stroke="#444749" stroke-width="2.625" stroke-linejoin="round"/>
<path d="M35.7373 25L39.3554 16.3225C39.763 15.3451 40.7679 14.8548 41.7764 14.6866C42.6485 14.5411 43.3437 14.1302 43.7164 13.4565C44.6424 11.7825 43.226 9.1196 40.5527 7.50877C37.8794 5.89794 34.9615 5.94916 34.0354 7.62319C33.6628 8.29686 33.6694 9.13069 33.9847 9.99164C34.3494 10.9873 34.445 12.1407 33.8378 12.9977L25.3333 25" stroke="#444749" stroke-width="2.625"/>
<path d="M10.171 9.83762L18.3333 18M15.0684 4.94021C18.6747 8.54656 17.7732 12.0303 15.0684 14.735C12.3636 17.4398 8.87994 18.3414 5.27359 14.735C1.66724 11.1287 2.00865 1.67528 2.00865 1.67528C2.00865 1.67528 11.462 1.33387 15.0684 4.94021Z" stroke="#444749" stroke-width="2.625" stroke-linecap="round" stroke-linejoin="round"/>
</svg>
