<svg width="50" height="50" viewBox="0 0 50 50" fill="none" xmlns="http://www.w3.org/2000/svg">
<path d="M6.33325 33.1667C3.75592 33.1667 1.66658 31.0774 1.66658 28.5C1.66658 25.9227 3.75592 23.8334 6.33325 23.8334L6.33325 33.1667Z" fill="white"/>
<path d="M6.33335 33.1667C3.75603 33.1667 1.66669 31.0774 1.66669 28.5C1.66669 25.9227 3.75603 23.8334 6.33335 23.8334" stroke="#444749" stroke-width="2.625" stroke-linecap="round" stroke-linejoin="round"/>
<path d="M43.6667 33.1667C46.244 33.1667 48.3334 31.0774 48.3334 28.5C48.3334 25.9227 46.244 23.8334 43.6667 23.8334V33.1667Z" fill="white"/>
<path d="M43.6667 33.1667C46.244 33.1667 48.3334 31.0774 48.3334 28.5C48.3334 25.9227 46.244 23.8334 43.6667 23.8334" stroke="#444749" stroke-width="2.625" stroke-linecap="round" stroke-linejoin="round"/>
<path d="M13.3333 13.3334L13.3333 6.33337" stroke="#444749" stroke-width="2.625" stroke-linejoin="round"/>
<path d="M36.6667 13.3334L36.6667 6.33337" stroke="#444749" stroke-width="2.625" stroke-linejoin="round"/>
<circle cx="13.3333" cy="3.99996" r="2.33333" fill="white"/>
<circle cx="13.3333" cy="3.99996" r="2.33333" stroke="#444749" stroke-width="2.625" stroke-linejoin="round"/>
<ellipse cx="36.6666" cy="3.99996" rx="2.33333" ry="2.33333" fill="white"/>
<ellipse cx="36.6666" cy="3.99996" rx="2.33333" ry="2.33333" stroke="#444749" stroke-width="2.625" stroke-linejoin="round"/>
<path d="M28.5 13.3334L21.5 13.3334C14.9003 13.3334 11.6005 13.3334 9.55025 15.4543C7.5 17.5753 7.5 20.9889 7.5 27.8161C7.5 34.6434 7.5 38.057 9.55025 40.1779C11.6005 42.2989 14.9003 42.2989 21.5 42.2989H23.8924C25.7394 42.2989 26.3911 42.6803 27.6639 44.0664C29.0716 45.5993 31.2513 47.645 33.2231 48.1214C36.0259 48.7985 36.3398 47.8618 35.7145 45.1907C35.5364 44.4296 35.0921 43.213 35.5607 42.5042C35.8231 42.1071 36.2604 42.0095 37.1351 41.8142C38.515 41.5061 39.653 41.0022 40.4497 40.1779C42.5 38.057 42.5 34.6434 42.5 27.8161C42.5 20.9889 42.5 17.5753 40.4497 15.4543C38.3995 13.3334 35.0997 13.3334 28.5 13.3334Z" fill="white"/>
<path d="M28.5 13.3334L21.5 13.3334C14.9003 13.3334 11.6005 13.3334 9.55025 15.4543C7.5 17.5753 7.5 20.9889 7.5 27.8161C7.5 34.6434 7.5 38.057 9.55025 40.1779C11.6005 42.2989 14.9003 42.2989 21.5 42.2989H23.8924C25.7394 42.2989 26.3911 42.6803 27.6639 44.0664C29.0716 45.5993 31.2513 47.645 33.2231 48.1214C36.0259 48.7985 36.3398 47.8618 35.7145 45.1907C35.5364 44.4296 35.0921 43.213 35.5607 42.5042C35.8231 42.1071 36.2604 42.0095 37.1351 41.8142C38.515 41.5061 39.653 41.0022 40.4497 40.1779C42.5 38.057 42.5 34.6434 42.5 27.8161C42.5 20.9889 42.5 17.5753 40.4497 15.4543C38.3995 13.3334 35.0997 13.3334 28.5 13.3334Z" fill="#E3FFFE" stroke="#444749" stroke-width="2.625" stroke-linejoin="round"/>
<path d="M19.1667 32C20.4969 33.4169 22.6147 34.3333 25 34.3333C27.3854 34.3333 29.5032 33.4169 30.8334 32" stroke="#444749" stroke-width="2.625" stroke-linecap="round" stroke-linejoin="round"/>
<path fill-rule="evenodd" clip-rule="evenodd" d="M18.0209 22.6666H18Z" fill="#E3FFFE"/>
<path d="M18.0209 22.6666H18" stroke="#444749" stroke-width="3.5" stroke-linecap="round" stroke-linejoin="round"/>
<path d="M32.0209 22.6666H32" stroke="#444749" stroke-width="3.5" stroke-linecap="round" stroke-linejoin="round"/>
</svg>
