<svg width="50" height="50" viewBox="0 0 50 50" fill="none" xmlns="http://www.w3.org/2000/svg">
<path d="M28.5 5.16663C28.5 7.09962 26.933 8.66663 25 8.66663C23.067 8.66663 21.5 7.09962 21.5 5.16663C21.5 3.23363 23.067 1.66663 25 1.66663C26.933 1.66663 28.5 3.23363 28.5 5.16663Z" fill="#E3FFFE"/>
<path d="M28.5 5.16663C28.5 7.09962 26.933 8.66663 25 8.66663C23.067 8.66663 21.5 7.09962 21.5 5.16663C21.5 3.23363 23.067 1.66663 25 1.66663C26.933 1.66663 28.5 3.23363 28.5 5.16663Z" stroke="#444749" stroke-width="2.625"/>
<path d="M34.3333 37.8334C34.3333 35.9004 30.1546 34.3334 25 34.3334C19.8453 34.3334 15.6666 35.9004 15.6666 37.8334C15.6666 39.7664 19.8453 41.3334 25 41.3334C28.866 41.3334 32 42.9004 32 44.8334C32 46.7664 28.866 48.3334 25 48.3334C22.0019 48.3334 19.4441 47.391 18.4467 46.0664" stroke="#444749" stroke-width="2.625" stroke-linecap="round"/>
<path d="M25 8.66663V34.3333" stroke="#444749" stroke-width="2.625" stroke-linecap="round"/>
<path d="M17.6136 13.2481C19.6961 17.8345 22.8237 20.2443 25 21.121C19.4 30.145 14.5716 27.3877 12.8575 24.881C8.15474 28.8598 3.61249 22.0645 1.66663 17.361C3.72684 17.361 8.01447 16.0689 12.0009 11.5288C13.7416 9.54628 14.612 8.55504 15.1025 8.67661C15.5931 8.79817 16.2666 10.2815 17.6136 13.2481Z" fill="white"/>
<path d="M12.8575 24.881C8.15474 28.8598 3.61249 22.0645 1.66663 17.361C3.72684 17.361 8.01447 16.0689 12.0009 11.5288C13.7416 9.54628 14.612 8.55504 15.1025 8.67661C15.5931 8.79817 16.2666 10.2815 17.6136 13.2481C19.6961 17.8345 22.8237 20.2443 25 21.121C19.4 30.145 14.5716 27.3877 12.8575 24.881ZM12.8575 24.881C13.5459 24.2986 14.2377 23.4853 14.9254 22.4008" stroke="#444749" stroke-width="2.625" stroke-linecap="round" stroke-linejoin="round"/>
<path d="M32.3863 13.2481C30.3038 17.8345 27.1762 20.2443 25 21.121C30.6 30.145 35.4283 27.3877 37.1425 24.881C41.8452 28.8598 46.3875 22.0645 48.3333 17.361C46.2731 17.361 41.9855 16.0689 37.999 11.5288C36.2583 9.54628 35.388 8.55504 34.8974 8.67661C34.4069 8.79817 33.7334 10.2815 32.3863 13.2481Z" fill="white"/>
<path d="M37.1425 24.881C41.8452 28.8598 46.3875 22.0645 48.3333 17.361C46.2731 17.361 41.9855 16.0689 37.999 11.5288C36.2583 9.54628 35.388 8.55504 34.8974 8.67661C34.4069 8.79817 33.7334 10.2815 32.3863 13.2481C30.3038 17.8345 27.1762 20.2443 25 21.121C30.6 30.145 35.4283 27.3877 37.1425 24.881ZM37.1425 24.881C36.4541 24.2986 35.7622 23.4853 35.0746 22.4008" stroke="#444749" stroke-width="2.625" stroke-linecap="round" stroke-linejoin="round"/>
</svg>
