<svg width="50" height="46" viewBox="0 0 50 46" fill="none" xmlns="http://www.w3.org/2000/svg">
<path d="M42.4126 4.31821C36.1554 0.480058 30.6941 2.02679 27.4134 4.49056C26.0682 5.50076 25.3956 6.00586 24.9999 6.00586C24.6042 6.00586 23.9316 5.50076 22.5864 4.49056C19.3057 2.02679 13.8445 0.480058 7.58727 4.31821C-0.624592 9.35537 -2.48274 25.9732 16.4588 39.993C20.0666 42.6634 21.8705 43.9985 24.9999 43.9985C28.1294 43.9985 29.9332 42.6634 33.541 39.993C52.4826 25.9732 50.6244 9.35537 42.4126 4.31821Z" fill="white"/>
<path d="M42.4126 4.31821C36.1554 0.480058 30.6941 2.02679 27.4134 4.49056C26.0682 5.50076 25.3956 6.00586 24.9999 6.00586C24.6042 6.00586 23.9316 5.50076 22.5864 4.49056C19.3057 2.02679 13.8445 0.480058 7.58727 4.31821C-0.624592 9.35537 -2.48274 25.9732 16.4588 39.993C20.0666 42.6634 21.8705 43.9985 24.9999 43.9985C28.1294 43.9985 29.9332 42.6634 33.541 39.993C52.4826 25.9732 50.6244 9.35537 42.4126 4.31821Z" fill="#E3FFFE" stroke="#444749" stroke-width="2.625" stroke-linecap="round"/>
<path d="M34.3333 25.3333H32C30.9377 25.3333 29.8196 25.4156 28.866 24.6832C28.5025 24.404 28.2613 24.0181 27.779 23.2463L23.8333 16L16.8333 27.6667L13.2012 22.6081C12.6035 21.8909 12.0208 21.1637 11.2297 20.876C10.6544 20.6667 9.99182 20.6667 8.66667 20.6667H4" stroke="#444749" stroke-width="2.625" stroke-linecap="round" stroke-linejoin="round"/>
</svg>
