<svg width="50" height="48" viewBox="0 0 50 48" fill="none" xmlns="http://www.w3.org/2000/svg">
<path d="M4 32.1667V20.5H46V32.1667C46 38.7663 46 42.0662 43.9497 44.1164C41.8995 46.1667 38.5997 46.1667 32 46.1667H18C11.4003 46.1667 8.1005 46.1667 6.05025 44.1164C4 42.0662 4 38.7663 4 32.1667Z" fill="white"/>
<path d="M2.19924 13.1718L3.79461 8.21525C4.78599 5.13516 5.28169 3.59511 6.4618 2.71424C7.64191 1.83337 9.20942 1.83337 12.3445 1.83337H37.6555C40.7905 1.83337 42.358 1.83337 43.5381 2.71424C44.7182 3.59511 45.2139 5.13516 46.2053 8.21525L47.8007 13.1718C48.2323 14.5129 48.4481 15.1834 48.2715 16.3156C48.0948 17.4478 47.8824 17.7419 47.4575 18.3301C45.5079 21.0295 41.8383 22.8334 38.4276 22.8334C35.7975 22.8334 33.4198 21.7608 31.7138 20.032C31.0303 20.9658 28.7305 22.8334 24.9984 22.8334C22.3691 22.8334 19.992 21.7614 18.2861 20.0336C15.7151 22.4605 12.739 22.9113 11.5723 22.8334C8.16162 22.8334 4.49202 21.0295 2.5424 18.3301C2.11757 17.7419 1.90515 17.4478 1.72846 16.3156C1.55178 15.1834 1.7676 14.5129 2.19924 13.1718Z" fill="#E3FFFE"/>
<path d="M4 20.5V32.1667C4 38.7663 4 42.0662 6.05025 44.1164C8.1005 46.1667 11.4003 46.1667 18 46.1667H32C38.5997 46.1667 41.8995 46.1667 43.9497 44.1164C46 42.0662 46 38.7663 46 32.1667V20.5" stroke="#444749" stroke-width="2.625" stroke-linecap="round"/>
<path d="M32 35.6666C30.4038 37.0835 27.8624 38 25 38C22.1376 38 19.5962 37.0835 18 35.6666" stroke="#444749" stroke-width="2.625" stroke-linecap="round"/>
<path d="M3.79461 8.21525L2.54523 7.81311L2.54523 7.81311L3.79461 8.21525ZM2.19924 13.1718L3.44862 13.5739L3.44862 13.5739L2.19924 13.1718ZM46.2053 8.21525L44.9559 8.61738L44.9559 8.61738L46.2053 8.21525ZM47.8007 13.1718L49.0501 12.7697L49.0501 12.7697L47.8007 13.1718ZM19.2201 19.1115C18.7108 18.5956 17.8798 18.5903 17.364 19.0996C16.8482 19.6089 16.8429 20.4399 17.3522 20.9557L18.2861 20.0336L19.2201 19.1115ZM32.648 19.1101C32.1388 18.5942 31.3078 18.5887 30.7919 19.0978C30.2759 19.607 30.2704 20.438 30.7796 20.9539L31.7138 20.032L32.648 19.1101ZM2.5424 18.3301L3.6064 17.5617L3.6064 17.5617L2.5424 18.3301ZM21.9461 16.1627C22.1279 15.461 21.7066 14.7447 21.0049 14.5629C20.3032 14.381 19.5869 14.8024 19.405 15.5041L20.6756 15.8334L21.9461 16.1627ZM35.3721 16.1627C35.554 15.461 35.1326 14.7447 34.4309 14.5629C33.7293 14.381 33.013 14.8024 32.8311 15.5041L34.1016 15.8334L35.3721 16.1627ZM47.4575 18.3301L46.3935 17.5617L46.3935 17.5617L47.4575 18.3301ZM48.2715 16.3156L46.9747 16.1132L46.9747 16.1132L48.2715 16.3156ZM1.72846 16.3156L0.431657 16.518L0.431657 16.518L1.72846 16.3156ZM6.4618 2.71424L5.6767 1.66244L5.6767 1.66244L6.4618 2.71424ZM3.79461 8.21525L2.54523 7.81311L0.949867 12.7697L2.19924 13.1718L3.44862 13.5739L5.04398 8.61738L3.79461 8.21525ZM46.2053 8.21525L44.9559 8.61738L46.5513 13.5739L47.8007 13.1718L49.0501 12.7697L47.4547 7.81311L46.2053 8.21525ZM12.3445 1.83337V3.14587H37.6555V1.83337V0.520874H12.3445V1.83337ZM24.9984 22.8334V21.5209C22.7329 21.5209 20.6885 20.5987 19.2201 19.1115L18.2861 20.0336L17.3522 20.9557C19.2955 22.9241 22.0054 24.1459 24.9984 24.1459V22.8334ZM38.4276 22.8334V21.5209C36.1614 21.5209 34.1165 20.5982 32.648 19.1101L31.7138 20.032L30.7796 20.9539C32.7231 22.9233 35.4336 24.1459 38.4276 24.1459V22.8334ZM11.5723 22.8334V21.5209C8.55983 21.5209 5.29597 19.901 3.6064 17.5617L2.5424 18.3301L1.4784 19.0986C3.68807 22.158 7.76342 24.1459 11.5723 24.1459V22.8334ZM20.6756 15.8334L19.405 15.5041C18.5094 18.9593 15.3452 21.5209 11.5723 21.5209V22.8334V24.1459C16.5589 24.1459 20.7548 20.7585 21.9461 16.1627L20.6756 15.8334ZM34.1016 15.8334L32.8311 15.5041C31.9355 18.9593 28.7712 21.5209 24.9984 21.5209V22.8334V24.1459C29.985 24.1459 34.1809 20.7585 35.3721 16.1627L34.1016 15.8334ZM47.4575 18.3301L46.3935 17.5617C44.704 19.901 41.4401 21.5209 38.4276 21.5209V22.8334V24.1459C42.2365 24.1459 46.3119 22.158 48.5215 19.0986L47.4575 18.3301ZM47.8007 13.1718L46.5513 13.5739C46.9866 14.9264 47.0979 15.3233 46.9747 16.1132L48.2715 16.3156L49.5683 16.518C49.7984 15.0435 49.478 14.0993 49.0501 12.7697L47.8007 13.1718ZM47.4575 18.3301L48.5215 19.0986C48.7229 18.8198 48.9645 18.4927 49.1569 18.0601C49.3512 17.623 49.4712 17.1397 49.5683 16.518L48.2715 16.3156L46.9747 16.1132C46.895 16.6237 46.8205 16.8536 46.7582 16.9937C46.694 17.1382 46.617 17.2522 46.3935 17.5617L47.4575 18.3301ZM46.2053 8.21525L47.4547 7.81311C46.9681 6.30123 46.5719 5.06432 46.1397 4.10223C45.6949 3.11205 45.1594 2.28661 44.3232 1.66244L43.5381 2.71424L42.753 3.76604C43.0969 4.02274 43.3993 4.40776 43.7452 5.17785C44.1038 5.97602 44.4512 7.04918 44.9559 8.61738L46.2053 8.21525ZM37.6555 1.83337V3.14587C39.2543 3.14587 40.3393 3.148 41.1758 3.2469C41.9759 3.3415 42.413 3.51221 42.753 3.76604L43.5381 2.71424L44.3232 1.66244C43.4832 1.03541 42.5464 0.76568 41.484 0.640062C40.458 0.518749 39.1917 0.520874 37.6555 0.520874V1.83337ZM2.19924 13.1718L0.949868 12.7697C0.521905 14.0993 0.20156 15.0435 0.431657 16.518L1.72846 16.3156L3.02527 16.1132C2.90199 15.3233 3.01329 14.9264 3.44862 13.5739L2.19924 13.1718ZM2.5424 18.3301L3.6064 17.5617C3.3829 17.2522 3.30593 17.1382 3.2417 16.9937C3.17943 16.8536 3.10492 16.6237 3.02527 16.1132L1.72846 16.3156L0.431657 16.518C0.528687 17.1397 0.648736 17.623 0.843055 18.0601C1.03541 18.4927 1.27707 18.8198 1.4784 19.0986L2.5424 18.3301ZM3.79461 8.21525L5.04398 8.61738C5.54874 7.04918 5.89614 5.97602 6.25468 5.17785C6.60061 4.40776 6.90299 4.02274 7.24689 3.76604L6.4618 2.71424L5.6767 1.66244C4.8405 2.28661 4.30497 3.11205 3.86018 4.10223C3.428 5.06432 3.03186 6.30123 2.54523 7.81311L3.79461 8.21525ZM12.3445 1.83337V0.520874C10.8082 0.520874 9.54195 0.518749 8.51592 0.640062C7.45348 0.76568 6.51675 1.03541 5.6767 1.66244L6.4618 2.71424L7.24689 3.76604C7.58695 3.51221 8.02404 3.3415 8.82414 3.2469C9.66066 3.148 10.7457 3.14587 12.3445 3.14587V1.83337Z" fill="#444749"/>
</svg>
